<svg xmlns="http://www.w3.org/2000/svg" xmlns:xlink="http://www.w3.org/1999/xlink" version="1.1" x="0px" y="0px" viewBox="0 0 100 125" enable-background="new 0 0 100 100" xml:space="preserve"><g><path d="M75.8,32.7h18.7c0.3,0,0.5-0.2,0.5-0.5c0-0.3-0.2-0.5-0.5-0.5H75.9c0-0.2,0-0.3,0-0.5c0-0.4,0-0.7,0.1-1.1l0-0.2   c0-0.1,0-0.2,0-0.4c0-7.1-3.2-13.6-8.6-17.7h27.1c0.3,0,0.5-0.2,0.5-0.5c0-0.3-0.2-0.5-0.5-0.5H65.8c-0.3-0.2-0.6-0.4-0.9-0.5   l-0.2-0.1c-0.3-0.2-0.6-0.3-0.8-0.4c-0.1,0-0.2-0.1-0.3-0.1C63.3,9.2,63,9.1,62.7,9l-0.3-0.1C57.7,7,52.4,7,47.6,8.9L47.3,9   c-0.3,0.1-0.6,0.2-0.8,0.4c-0.1,0-0.2,0.1-0.3,0.1c-0.3,0.1-0.6,0.3-0.8,0.4l-0.2,0.1c-0.3,0.2-0.6,0.4-0.9,0.5H18.3   c-0.3,0-0.5,0.2-0.5,0.5c0,0.3,0.2,0.5,0.5,0.5h24.4c-5.4,4.1-8.6,10.6-8.6,17.7c0,0.5,0,1,0.1,1.6c0,0.2,0,0.3,0,0.5H18.3   c-0.3,0-0.5,0.2-0.5,0.5c0,0.3,0.2,0.5,0.5,0.5h16c0.4,3.1,1.5,6,3.1,8.6c0.2,0.3,0.3,0.5,0.5,0.8c2.3,3.4,5.4,5.9,8.9,7.5   l-0.4,0.1c-1.3,0.4-6.4,2.1-8.4,2.9H18.3c-0.3,0-0.5,0.2-0.5,0.5s0.2,0.5,0.5,0.5h17.2c-2.4,1.1-4.6,2.4-6.6,3.8c0,0,0,0,0,0   c0,0,0,0,0,0c-0.1,0.1-3.7,2.8-5,4.2c-1.9,1.9-3.4,4-4.6,6.2c0,0,0,0,0,0c0,0,0,0,0,0c-0.1,0.1-1.4,3.1-1.8,4.3   c-0.4,1.2-0.7,2.3-0.9,3.5c0,0,0,0.1,0,0.1c-0.2,0.7-0.4,3-0.5,5c-0.1,1.1-0.2,2.1-0.2,2.4c0,0.3,0.1,0.5,0.4,0.6   c-0.3,1.1-0.3,2.2,0,3.3c0.6,2.5,1.8,4.2,3.6,4.9c0.6,0.2,1.3,0.3,2.2,0.3c1.4,0,3.2-0.3,5.4-0.8c0,0,0,0,0,0c0,0,0,0,0,0   c0.6-0.2,1.5-0.4,2.5-0.7c2.3-0.7,5.3-1.5,5.9-1.8c0.5-0.1,0.9-0.3,1.3-0.5l0.1,0c0,0,0.1,0,0.1-0.1c2.3-1.2,3.8-3.5,3.8-6.1v-0.3   c0-3.6-2.9-6.6-6.5-6.8v-7.2v-1.6h40.9v1.6v7.2c-3.6,0.2-6.5,3.2-6.5,6.8v0.3c0,3.2,2.3,6,5.4,6.7c0.6,0.2,3,0.9,5.2,1.6   c1.1,0.3,2.1,0.6,2.7,0.8c0,0,0,0,0,0h0h0c0,0,0,0,0,0c2.6,0.6,4.6,0.9,6.2,0.9c0.9,0,1.7-0.1,2.2-0.3c0.9-0.4,1.7-1,2.3-1.9   c1.1-1.5,1.6-3.4,1.3-5.2c1-2.9,0-8.1-0.2-9.2c0,0,0,0,0,0c-0.2-1.2-0.5-2.4-0.9-3.6c-0.4-1.1-1.8-4.1-1.8-4.3c0,0,0,0,0,0   c0,0,0,0,0,0c-1.2-2.2-2.8-4.3-4.8-6.3l-5.1-4.2c0,0,0,0,0,0c0,0,0,0,0,0c-2-1.4-4.4-2.7-6.7-3.8h19.7c0.3,0,0.5-0.2,0.5-0.5   s-0.2-0.5-0.5-0.5H72.3c-3.4-1.5-6.6-2.7-8.5-3.3C70.1,46.3,74.7,40.1,75.8,32.7z M17.1,80.9c0.2-1.7,0.4-4,0.5-4.7   c0,0,0-0.1,0-0.1c0.2-1.1,0.5-2.3,0.8-3.5c0.3-0.9,1.2-3,1.6-3.8h13.4v6.7l-9,2.3c-0.3,0-2.4,0.4-4.5,1.4c-1.3,0.6-2.3,1.5-3,2.6   C17,81.5,17.1,81.2,17.1,80.9z M20.1,91.1c-1.4-0.6-2.4-2-2.9-4.1c-0.6-2.7,0.7-5.6,3.3-6.7c1.4-0.6,2.8-1,3.6-1.1   c-0.2,5.6,1.1,9.4,2.4,11.7C23.3,91.4,21.1,91.5,20.1,91.1z M39.9,82.3v0.3c0,2.2-1.3,4.2-3.2,5.1c0,0,0,0,0,0l0,0   c-0.4,0.2-0.7,0.3-1.1,0.4c-0.7,0.2-3.6,1.1-5.9,1.8c-0.8,0.2-1.6,0.5-2.1,0.6c-1.2-2.2-2.6-6-2.4-11.7l9-2.3h0.1   C37.4,76.5,39.9,79.1,39.9,82.3z M82.1,90.4c-0.6-0.2-1.4-0.4-2.3-0.7c-2-0.6-4.6-1.4-5.1-1.6c0,0,0,0-0.1,0   c-2.6-0.6-4.5-2.9-4.5-5.6v-0.3c0-3.2,2.6-5.7,5.7-5.7H76l8.4,2.3C84.6,84.4,83.3,88.2,82.1,90.4z M92.1,89.6   c-0.5,0.7-1.1,1.2-1.9,1.5c-1.1,0.5-3.6,0.3-7-0.5c1.2-2.3,2.5-6.1,2.3-11.6c1.1,0.2,3.5,0.8,5.1,1.8c1.4,0.9,2.3,2.4,2.6,4   c0,0,0,0.1,0,0.1c0,0.1,0,0.1,0,0.2C93.5,86.7,93.1,88.3,92.1,89.6z M93,76.1C93,76.1,93,76.1,93,76.1c0.1,0.6,0.8,4,0.6,6.7   c-0.5-1.1-1.4-2-2.4-2.8c-2.2-1.5-5.7-2.1-6.1-2.1l-8.5-2.3v-6.7h13.9c0.4,0.8,1.4,2.9,1.6,3.8C92.5,73.8,92.8,74.9,93,76.1z    M89.9,67.7H76.6v-1.6c0-0.3-0.2-0.5-0.5-0.5H34c-0.3,0-0.5,0.2-0.5,0.5v1.6H20.7c1.1-1.8,2.4-3.6,4-5.2c1.2-1.3,4.1-3.5,4.8-4   h51.5l4.9,4C87.4,64.2,88.8,65.9,89.9,67.7z M79.3,57.4H31.1c2.2-1.4,4.6-2.7,7.3-3.7c0,0,0,0,0,0c0,0,0,0,0,0   c1.9-0.8,7.1-2.5,8.4-2.9l1.6-0.4c0.1,0,0.1,0,0.1-0.1c2.1,0.7,4.3,1.1,6.6,1.1c2.5,0,5-0.5,7.3-1.4C64.1,50.5,72.8,53.5,79.3,57.4   z M55,50.3c-6.4,0-12.5-3.3-16.2-8.8c-0.2-0.3-0.3-0.5-0.5-0.8c-1.8-2.9-2.9-6.3-3.1-9.7c0-0.6-0.1-1.1-0.1-1.6   c0-7.3,3.6-14,9.5-17.8c0.3-0.2,0.7-0.4,1-0.6l0.2-0.1c0.3-0.1,0.5-0.3,0.8-0.4c0.1,0,0.2-0.1,0.3-0.1c0.3-0.1,0.5-0.2,0.8-0.3   L48,9.9c2.2-0.9,4.6-1.3,7-1.3c2.4,0,4.8,0.4,7,1.3l0.3,0.1c0.3,0.1,0.5,0.2,0.8,0.3l0.3,0.1c0.3,0.1,0.5,0.3,0.8,0.4l0.2,0.1   c0.3,0.2,0.7,0.4,1,0.6c6,3.8,9.5,10.5,9.5,17.8c0,0.1,0,0.2,0,0.3l0,0.2c0,0.4,0,0.7,0,1.1c0,0.3-0.1,0.7-0.1,1c0,0,0,0,0,0   C73.5,42.5,65,50.3,55,50.3z"/><path d="M8.2,11.2c0.8-0.5,1.2-1,1.2-1.7c0-0.3,0-0.5-0.1-0.7C9.1,8.5,9,8.4,8.8,8.2C8.6,8.1,8.4,7.9,8.2,7.8   C7.9,7.8,7.6,7.7,7.3,7.7c-0.3,0-0.6,0-0.8,0.1C6.2,7.9,6,8.1,5.8,8.2C5.7,8.4,5.5,8.5,5.4,8.8C5.3,9,5.3,9.2,5.3,9.5   c0,0.7,0.4,1.3,1.2,1.7C5.5,11.6,5,12.2,5,13c0,0.3,0.1,0.6,0.2,0.8c0.1,0.2,0.3,0.5,0.5,0.6c0.2,0.2,0.4,0.3,0.7,0.4   C6.7,15,7,15,7.3,15c0.3,0,0.7,0,0.9-0.1c0.3-0.1,0.5-0.2,0.7-0.4c0.2-0.2,0.4-0.4,0.5-0.6s0.2-0.5,0.2-0.8   C9.7,12.2,9.2,11.6,8.2,11.2z M6.2,9.5c0-0.3,0.1-0.6,0.3-0.8C6.7,8.5,7,8.4,7.3,8.4c0.4,0,0.6,0.1,0.8,0.3   c0.2,0.2,0.3,0.4,0.3,0.8c0,0.6-0.4,1-1.1,1.3C6.6,10.5,6.2,10,6.2,9.5z M8.6,13.6c-0.1,0.2-0.2,0.3-0.3,0.4   c-0.1,0.1-0.3,0.2-0.4,0.3c-0.2,0.1-0.4,0.1-0.6,0.1c-0.2,0-0.4,0-0.6-0.1c-0.2-0.1-0.3-0.1-0.4-0.3c-0.1-0.1-0.2-0.2-0.3-0.4   C6,13.4,5.9,13.2,5.9,13c0-0.3,0.1-0.6,0.3-0.8c0.2-0.2,0.6-0.4,1.1-0.7c0.5,0.2,0.8,0.4,1.1,0.7c0.2,0.2,0.3,0.5,0.3,0.8   C8.7,13.2,8.7,13.4,8.6,13.6z"/><path d="M12.8,7.7c-1.5,0-2.3,1.2-2.3,3.7c0,2.4,0.8,3.6,2.3,3.6c1.5,0,2.3-1.2,2.3-3.6C15.1,8.9,14.3,7.7,12.8,7.7z M14.1,12.8   c-0.1,0.4-0.1,0.7-0.3,0.9c-0.1,0.2-0.3,0.4-0.4,0.5c-0.2,0.1-0.4,0.1-0.6,0.1c-0.2,0-0.4,0-0.6-0.1c-0.2-0.1-0.3-0.3-0.4-0.5   s-0.2-0.5-0.3-0.9c-0.1-0.4-0.1-0.8-0.1-1.4c0-0.6,0-1,0.1-1.4c0.1-0.4,0.1-0.7,0.3-0.9c0.1-0.2,0.3-0.4,0.4-0.5   c0.2-0.1,0.4-0.1,0.6-0.1c0.2,0,0.4,0,0.6,0.1c0.2,0.1,0.3,0.3,0.4,0.5S14,9.6,14.1,10c0.1,0.4,0.1,0.8,0.1,1.4   C14.2,11.9,14.1,12.4,14.1,12.8z"/><polygon points="7.1,35.2 9.6,28.7 9.6,28.1 5.1,28.1 5.1,28.9 8.7,28.9 6,35.2  "/><path d="M12.8,28c-1.5,0-2.3,1.2-2.3,3.7c0,2.4,0.8,3.6,2.3,3.6c1.5,0,2.3-1.2,2.3-3.6C15.1,29.2,14.3,28,12.8,28z M14.1,33   c-0.1,0.4-0.1,0.7-0.3,0.9c-0.1,0.2-0.3,0.4-0.4,0.5c-0.2,0.1-0.4,0.1-0.6,0.1c-0.2,0-0.4,0-0.6-0.1c-0.2-0.1-0.3-0.3-0.4-0.5   s-0.2-0.5-0.3-0.9c-0.1-0.4-0.1-0.8-0.1-1.4c0-0.6,0-1,0.1-1.4c0.1-0.4,0.1-0.7,0.3-0.9c0.1-0.2,0.3-0.4,0.4-0.5   c0.2-0.1,0.4-0.1,0.6-0.1c0.2,0,0.4,0,0.6,0.1c0.2,0.1,0.3,0.3,0.4,0.5s0.2,0.5,0.3,0.9c0.1,0.4,0.1,0.8,0.1,1.4   C14.2,32.2,14.1,32.7,14.1,33z"/><path d="M9,52.6c-0.2-0.2-0.4-0.4-0.7-0.5c-0.3-0.1-0.5-0.2-0.8-0.2c-0.6,0-1.1,0.3-1.6,0.8c0-0.4,0.1-0.8,0.2-1.1   c0.1-0.3,0.2-0.6,0.3-0.8c0.1-0.2,0.3-0.4,0.5-0.5c0.2-0.1,0.4-0.2,0.6-0.2c0.7,0,1,0.3,1.1,1h0.9c0-0.3-0.1-0.5-0.2-0.8   c-0.1-0.2-0.3-0.4-0.4-0.5c-0.2-0.1-0.4-0.3-0.6-0.3s-0.5-0.1-0.7-0.1c-1.7,0-2.5,1.3-2.5,3.9c0,0.5,0.1,1,0.2,1.5   c0.1,0.4,0.3,0.8,0.5,1.1c0.2,0.3,0.5,0.5,0.8,0.7c0.3,0.2,0.6,0.2,1,0.2c0.3,0,0.6-0.1,0.9-0.2c0.3-0.1,0.5-0.3,0.7-0.5   c0.2-0.2,0.3-0.5,0.4-0.8c0.1-0.3,0.2-0.6,0.2-0.9c0-0.3-0.1-0.6-0.2-0.9S9.2,52.8,9,52.6z M8.6,54.9c-0.1,0.2-0.1,0.4-0.3,0.5   c-0.1,0.1-0.2,0.3-0.4,0.4c-0.2,0.1-0.3,0.1-0.5,0.1c-0.2,0-0.4-0.1-0.6-0.2c-0.2-0.1-0.3-0.3-0.5-0.5c-0.1-0.2-0.2-0.5-0.3-0.8   c-0.1-0.3-0.1-0.7-0.1-1.1c0.5-0.5,1-0.8,1.5-0.8c0.2,0,0.4,0,0.5,0.1c0.2,0.1,0.3,0.2,0.4,0.3c0.1,0.1,0.2,0.3,0.3,0.5   c0.1,0.2,0.1,0.4,0.1,0.7C8.7,54.5,8.7,54.7,8.6,54.9z"/><path d="M12.8,49.3c-1.5,0-2.3,1.2-2.3,3.7c0,2.4,0.8,3.6,2.3,3.6c1.5,0,2.3-1.2,2.3-3.6C15.1,50.6,14.3,49.3,12.8,49.3z    M14.1,54.4c-0.1,0.4-0.1,0.7-0.3,0.9c-0.1,0.2-0.3,0.4-0.4,0.5c-0.2,0.1-0.4,0.1-0.6,0.1c-0.2,0-0.4,0-0.6-0.1   c-0.2-0.1-0.3-0.3-0.4-0.5c-0.1-0.2-0.2-0.5-0.3-0.9c-0.1-0.4-0.1-0.8-0.1-1.4c0-0.6,0-1,0.1-1.4c0.1-0.4,0.1-0.7,0.3-0.9   c0.1-0.2,0.3-0.4,0.4-0.5c0.2-0.1,0.4-0.1,0.6-0.1c0.2,0,0.4,0,0.6,0.1c0.2,0.1,0.3,0.3,0.4,0.5c0.1,0.2,0.2,0.5,0.3,0.9   c0.1,0.4,0.1,0.8,0.1,1.4S14.1,54,14.1,54.4z"/></g><text x="0" y="115" fill="#000000" font-size="5px" font-weight="bold" font-family="'Helvetica Neue', Helvetica, Arial-Unicode, Arial, Sans-serif">Created by parkjisun</text><text x="0" y="120" fill="#000000" font-size="5px" font-weight="bold" font-family="'Helvetica Neue', Helvetica, Arial-Unicode, Arial, Sans-serif">from the Noun Project</text></svg>